<svg version="1.1" id="Layer_1" xmlns="http://www.w3.org/2000/svg" xmlns:xlink="http://www.w3.org/1999/xlink" x="0px" y="0px"
	 width="100%" viewBox="0 0 607 607" enable-background="new 0 0 607 607" xml:space="preserve">
<path fill="#9BC9C5" opacity="1.000000" stroke="none" 
	d="
M1.000000,138.000000 
	C1.000000,119.645775 1.000000,101.291542 1.468657,82.468658 
	C203.958206,82.000000 405.979095,82.000000 608.000000,82.000000 
	C608.000000,101.354225 608.000000,120.708458 607.531372,140.531128 
	C581.083557,140.999527 555.104309,140.972946 529.125366,141.050049 
	C527.055664,141.056183 524.988098,141.779297 522.652100,141.956512 
	C519.777527,136.644882 515.397461,134.047653 509.620544,132.713913 
	C508.476013,132.329163 507.672791,132.033951 506.869080,132.032532 
	C490.174408,132.003067 473.479645,131.986450 456.785156,132.045517 
	C455.532654,132.049942 454.282257,132.642029 452.660400,133.032639 
	C449.909058,133.861969 447.528168,134.619583 444.888184,135.064453 
	C442.453766,134.168167 440.288086,133.126587 438.101593,133.080917 
	C428.973480,132.890381 419.834747,133.147858 410.710358,132.882614 
	C408.693024,132.823975 406.718140,131.304276 404.761230,130.078674 
	C404.817078,128.869659 404.935822,128.027390 404.838623,127.210808 
	C403.540314,116.304482 394.767120,108.904663 385.305511,110.704742 
	C374.086761,112.839119 368.220093,121.509216 370.507141,132.187195 
	C367.833160,132.568771 365.533722,132.971405 363.234039,132.972702 
	C302.524597,133.007126 241.815079,132.969849 181.105881,133.097610 
	C178.337372,133.103439 175.571854,134.532623 172.454712,135.206757 
	C170.055649,134.387161 168.006790,133.659683 165.615814,132.708527 
	C164.470352,132.326904 163.667221,132.032516 162.863617,132.031143 
	C145.843414,132.002106 128.823105,131.986420 111.803055,132.043732 
	C110.547951,132.047958 109.294777,132.624710 107.682648,133.020050 
	C104.731689,134.148499 102.138794,135.192200 99.110504,136.192657 
	C91.825172,136.766281 84.979134,137.858856 78.124580,137.915268 
	C52.417896,138.126846 26.708426,138.000000 1.000000,138.000000 
M476.366058,118.625206 
	C478.188629,118.742882 480.012360,118.977661 481.833557,118.959358 
	C494.385468,118.833168 502.394653,105.561897 496.661774,94.440086 
	C493.032776,87.399818 485.625305,83.749138 477.894226,85.190727 
	C470.988403,86.478424 465.035126,92.842812 464.106903,99.930199 
	C463.076111,107.800766 467.371643,114.666878 476.366058,118.625206 
M153.921585,104.106239 
	C153.929276,103.274239 153.963974,102.441467 153.940475,101.610352 
	C153.724411,93.967514 148.248459,87.201332 140.796814,85.355583 
	C133.533157,83.556404 125.791283,86.855133 121.943687,93.388695 
	C117.970924,100.134819 119.096962,108.207443 124.413666,114.071251 
	C131.851654,122.274620 150.315796,121.318520 153.921585,104.106239 
z"/>
<path fill="#A5CAC7" opacity="1.000000" stroke="none" 
	d="
M608.000000,81.531342 
	C405.979095,82.000000 203.958206,82.000000 1.468657,82.000000 
	C1.000000,66.979103 1.000000,51.958210 1.467854,36.468658 
	C203.957138,36.000000 405.978577,36.000000 608.000000,36.000000 
	C608.000000,51.020893 608.000000,66.041786 608.000000,81.531342 
z"/>
<path fill="#71C3BE" opacity="1.000000" stroke="none" 
	d="
M608.000000,294.000000 
	C608.000000,312.687561 608.000000,331.375122 607.531372,350.531342 
	C584.879395,351.004791 562.696045,351.009583 540.436951,350.563354 
	C540.250366,347.651093 540.139526,345.189850 540.014343,342.408508 
	C384.692810,342.408508 229.721359,342.408508 74.414017,342.408508 
	C74.236763,345.442200 74.074150,348.225281 73.521843,351.031372 
	C68.240547,351.702942 63.354675,352.855316 58.456322,352.911011 
	C39.306355,353.128876 20.152445,353.000000 1.000000,353.000000 
	C1.000000,333.645782 1.000000,314.291534 1.468657,294.468658 
	C35.267731,294.000000 68.598434,294.062500 101.928169,293.912048 
	C105.631180,293.895325 109.328712,292.665283 113.094391,292.462921 
	C113.184250,298.258667 113.167351,303.589996 113.243462,308.920013 
	C113.332909,315.184265 115.612373,319.007782 119.988525,319.802551 
	C125.914825,320.878845 131.804382,318.682343 133.391693,312.552979 
	C133.737564,306.806274 133.890793,301.413879 134.418823,295.995789 
	C136.506454,295.649811 138.219299,295.329590 139.988068,295.474213 
	C140.062195,300.437042 140.048065,304.935425 140.106415,309.432892 
	C140.185791,315.551666 143.270447,319.359985 148.542297,319.939362 
	C155.233047,320.674683 158.303787,318.554932 160.362015,311.576019 
	C160.726120,303.821350 160.881897,296.414551 161.503967,289.006348 
	C174.112625,289.003967 186.258408,289.167053 198.395599,288.915710 
	C202.817169,288.824127 204.167953,290.330383 204.095673,294.665924 
	C203.988541,301.091919 204.560638,307.529205 204.929443,314.322693 
	C206.250595,319.267517 209.544067,320.634491 213.785660,319.856506 
	C218.006165,319.082336 219.714661,315.964417 219.906281,311.944489 
	C220.063889,308.638397 220.046722,305.323944 220.419617,302.108032 
	C222.479141,303.134979 224.226013,304.067139 225.980774,305.443237 
	C226.302505,308.926331 226.616333,311.965546 227.048416,315.337463 
	C229.253067,319.744141 232.899918,320.807831 236.846420,319.713776 
	C241.031708,318.553589 241.762314,314.777069 241.805313,310.917084 
	C241.860718,305.944763 241.935623,300.972626 242.422302,296.028107 
	C245.969574,296.370514 249.096207,296.953369 252.223877,296.958984 
	C288.141815,297.023315 324.059937,297.032928 359.977814,296.956573 
	C364.268890,296.947449 368.558746,296.343292 372.900970,296.479889 
	C372.975220,302.440765 372.884552,307.940338 373.061310,313.431335 
	C373.172485,316.883759 374.568237,319.634338 378.532562,319.935272 
	C382.338928,320.224213 384.448547,318.081726 385.261719,314.623627 
	C385.674530,312.867981 385.760742,311.004730 385.767334,309.189270 
	C385.819214,294.866058 385.771912,280.542236 385.901520,266.219910 
	C385.913910,264.848511 386.923553,263.486084 387.470215,262.119476 
	C388.034821,263.466370 388.735443,264.776154 389.116272,266.173126 
	C389.369904,267.103729 389.167969,268.158722 389.168884,269.158020 
	C389.181458,282.815186 389.175171,296.472382 389.214264,310.129456 
	C389.233185,316.731018 391.421173,319.907776 395.853363,319.953949 
	C400.201416,319.999237 401.913055,317.329712 401.959747,310.495972 
	C401.994995,305.335083 402.062500,300.174438 402.576233,295.009705 
	C419.154327,295.003571 435.273529,294.870911 451.388123,295.084930 
	C455.785370,295.143341 457.137787,293.699677 457.076385,289.353912 
	C456.858124,273.904144 456.982758,258.449554 456.983459,242.528458 
	C457.001282,219.087372 456.922546,196.113861 457.113007,173.142563 
	C457.145325,169.242096 456.322083,166.758102 452.600403,166.146667 
	C454.475311,166.076324 455.930939,166.076324 457.980072,166.076324 
	C457.980072,168.509521 457.979309,170.466049 457.980225,172.422577 
	C458.001709,217.387527 458.023193,262.352478 458.045593,307.317444 
	C458.046356,308.816254 457.971313,310.321136 458.077576,311.812775 
	C458.429413,316.750397 461.494324,319.711761 466.408295,319.951385 
	C474.041809,320.323608 477.861908,316.722748 477.908173,309.010681 
	C477.992035,295.024078 478.032776,281.037170 478.309021,267.395325 
	C478.686493,275.780243 479.015320,283.822021 478.932159,291.859558 
	C478.893066,295.635284 480.028351,297.507721 483.994934,297.484314 
	C484.277466,302.938080 484.541748,307.928314 484.925842,313.261414 
	C488.063263,319.070251 492.500610,321.171326 498.149689,319.809082 
	C502.438049,318.774994 504.695282,315.088623 504.818512,308.915161 
	C504.884491,305.610931 504.948395,302.306610 505.388947,299.086243 
	C508.436584,299.779633 511.091675,300.806793 513.783813,300.915283 
	C520.194580,301.173645 526.622925,300.997864 533.256348,301.314941 
	C534.673706,306.593689 535.995117,311.530518 537.044067,316.524536 
	C537.778931,320.023315 539.463379,320.860901 542.759399,319.156921 
	C541.064331,311.227325 539.381653,303.355865 538.026611,295.184204 
	C540.456299,294.589386 542.557556,294.045135 544.660461,294.038818 
	C565.773499,293.975250 586.886780,294.000061 608.000000,294.000000 
z"/>
<path fill="#ACCAC8" opacity="1.000000" stroke="none" 
	d="
M608.000000,35.532146 
	C405.978577,36.000000 203.957138,36.000000 1.467854,36.000000 
	C1.000000,24.340847 1.000000,12.681695 1.000000,1.043087 
	C203.333344,1.043087 405.666687,1.043087 608.000000,1.043087 
	C608.000000,12.412213 608.000000,23.738253 608.000000,35.532146 
z"/>
<path fill="#41817D" opacity="1.000000" stroke="none" 
	d="
M608.000000,551.000000 
	C608.000000,560.354248 608.000000,569.708435 607.532166,579.531372 
	C405.042877,580.000000 203.021439,580.000000 1.000000,580.000000 
	C1.000000,570.645752 1.000000,561.291565 1.468657,551.468628 
	C203.958206,551.000000 405.979095,551.000000 608.000000,551.000000 
z"/>
<path fill="#3B7672" opacity="1.000000" stroke="none" 
	d="
M1.000000,580.467896 
	C203.021439,580.000000 405.042877,580.000000 607.532166,580.000000 
	C608.000000,589.327209 608.000000,598.654358 608.000000,607.958984 
	C405.666656,607.958984 203.333328,607.958984 1.000000,607.958984 
	C1.000000,598.923828 1.000000,589.929810 1.000000,580.467896 
z"/>
<path fill="#468B87" opacity="1.000000" stroke="none" 
	d="
M608.000000,550.531372 
	C405.979095,551.000000 203.958206,551.000000 1.468657,551.000000 
	C1.000000,542.979065 1.000000,534.958191 1.468657,526.468628 
	C203.958206,526.000000 405.979095,526.000000 608.000000,526.000000 
	C608.000000,534.020935 608.000000,542.041809 608.000000,550.531372 
z"/>
<path fill="#64C0BC" opacity="1.000000" stroke="none" 
	d="
M1.000000,353.468658 
	C20.152445,353.000000 39.306355,353.128876 58.456322,352.911011 
	C63.354675,352.855316 68.240547,351.702942 73.584213,351.489349 
	C74.036270,355.513214 74.036270,359.102081 74.036270,363.276611 
	C151.533295,363.276611 228.154785,363.276611 306.208313,363.276611 
	C296.076996,380.606293 286.567017,396.873199 276.723663,412.883972 
	C274.091736,412.418549 271.793213,412.027069 269.494598,412.026276 
	C179.996399,411.995300 90.498199,412.000000 1.000000,412.000000 
	C1.000000,392.645782 1.000000,373.291534 1.000000,353.468658 
z"/>
<path fill="#4C9692" opacity="1.000000" stroke="none" 
	d="
M608.000000,525.531372 
	C405.979095,526.000000 203.958206,526.000000 1.468657,526.000000 
	C1.000000,516.979126 1.000000,507.958221 1.468657,498.468964 
	C77.319534,498.004730 152.701767,498.008850 228.010742,498.359680 
	C224.378738,504.989685 220.819946,511.272949 217.081589,517.873291 
	C245.617859,517.873291 273.506256,517.873291 301.159698,517.873291 
	C297.966217,511.417236 294.902557,505.223633 292.292297,499.024170 
	C296.064880,498.699921 299.384064,498.381531 302.879333,498.375641 
	C306.732361,504.363220 310.339752,510.085632 314.145111,515.673279 
	C314.905151,516.789307 316.381439,518.041809 317.594543,518.114624 
	C322.302887,518.397461 327.038330,518.229797 332.789551,518.229797 
	C331.835663,511.276245 330.993286,505.135620 330.594604,498.996277 
	C334.135529,498.203186 338.252502,501.006561 340.505890,496.719360 
	C341.776611,503.914520 342.805725,510.772797 343.887604,517.982910 
	C361.361877,517.982910 379.052124,517.982910 397.505127,517.982910 
	C394.200226,511.942932 391.205475,506.469727 388.666138,500.999329 
	C462.081085,501.001434 535.040527,501.000702 608.000000,501.000000 
	C608.000000,509.020905 608.000000,517.041809 608.000000,525.531372 
z"/>
<path fill="#66C0BC" opacity="1.000000" stroke="none" 
	d="
M540.512756,351.014374 
	C562.696045,351.009583 584.879395,351.004791 607.531372,351.000000 
	C608.000000,365.020905 608.000000,379.041779 607.531372,393.531342 
	C535.411987,394.000000 463.761261,394.000031 392.110565,394.000000 
	C370.615356,394.000000 349.119629,394.063995 327.625610,393.904114 
	C325.392670,393.887482 323.169586,392.541656 321.127472,391.522858 
	C321.481201,389.570068 322.348083,387.542816 321.702301,386.304077 
	C317.975677,379.155334 313.891571,372.192932 309.899109,364.824646 
	C309.827454,364.256470 309.785217,364.031067 309.789673,363.781128 
	C309.836365,363.756561 309.894836,363.844360 310.369202,363.888733 
	C386.255768,363.959839 461.667908,363.990387 537.080078,363.973022 
	C538.082703,363.972778 539.085144,363.365326 540.167114,362.583344 
	C540.335266,358.421722 540.424011,354.718048 540.512756,351.014374 
z"/>
<path fill="#5FBEBA" opacity="1.000000" stroke="none" 
	d="
M320.941925,391.812592 
	C323.169586,392.541656 325.392670,393.887482 327.625610,393.904114 
	C349.119629,394.063995 370.615356,394.000000 392.110565,394.000000 
	C463.761261,394.000031 535.411987,394.000000 607.531372,394.000000 
	C608.000000,402.020905 608.000000,410.041809 607.531372,418.531372 
	C518.381653,418.997894 429.700653,418.995819 340.776733,418.751740 
	C337.342865,413.088104 334.075378,407.709412 330.995789,402.225189 
	C329.623932,399.782013 327.786926,399.141693 325.798401,400.869232 
	C322.612488,403.637085 319.551239,406.606445 316.800140,409.802917 
	C312.822998,414.423767 309.169952,419.323578 304.964111,424.087128 
	C301.096008,424.044983 297.642456,424.020050 294.251617,423.659302 
	C300.810547,410.808960 309.390472,400.055267 320.941925,391.812592 
z"/>
<path fill="#51A19D" opacity="1.000000" stroke="none" 
	d="
M228.083984,498.012970 
	C152.701767,498.008850 77.319534,498.004730 1.468657,498.000305 
	C1.000000,489.312439 1.000000,480.624878 1.468657,471.468658 
	C79.902161,471.000031 157.867020,470.990021 235.831833,471.046906 
	C238.242325,471.048676 240.652328,471.743591 242.982910,472.452148 
	C237.963516,481.196960 233.023758,489.604980 228.083984,498.012970 
z"/>
<path fill="#55ABA7" opacity="1.000000" stroke="none" 
	d="
M243.062561,472.115356 
	C240.652328,471.743591 238.242325,471.048676 235.831833,471.046906 
	C157.867020,470.990021 79.902161,471.000031 1.468657,471.000000 
	C1.000000,463.645752 1.000000,456.291504 1.468657,448.468628 
	C86.951340,447.995728 171.965378,447.991486 256.906616,448.328735 
	C252.243408,456.485260 247.652985,464.300293 243.062561,472.115356 
z"/>
<path fill="#7CC5C0" opacity="1.000000" stroke="none" 
	d="
M113.028786,291.997925 
	C109.328712,292.665283 105.631180,293.895325 101.928169,293.912048 
	C68.598434,294.062500 35.267731,294.000000 1.468657,294.000000 
	C1.000000,277.645782 1.000000,261.291534 1.468657,244.468658 
	C34.347351,244.000000 66.757492,244.039581 99.167313,243.955383 
	C103.788971,243.943390 108.409088,243.331696 113.090233,243.463257 
	C113.109962,259.951965 113.069374,275.974976 113.028786,291.997925 
z"/>
<path fill="#58B1AD" opacity="1.000000" stroke="none" 
	d="
M608.000000,435.000000 
	C608.000000,442.020966 608.000000,449.041901 607.531372,456.531433 
	C525.679626,457.002258 444.296509,457.004517 362.643555,456.800842 
	C358.561188,449.771820 354.748657,442.948700 351.272003,435.872528 
	C353.907440,435.412994 356.206879,435.026825 358.506470,435.025970 
	C441.670990,434.995026 524.835510,435.000000 608.000000,435.000000 
z"/>
<path fill="#5AB4B0" opacity="1.000000" stroke="none" 
	d="
M256.979401,447.987244 
	C171.965378,447.991486 86.951340,447.995728 1.468657,448.000000 
	C1.000000,441.978851 1.000000,435.957703 1.468657,429.468262 
	C90.940292,428.993927 179.943283,428.987885 269.339661,429.027954 
	C276.195770,430.926361 282.658478,432.778687 289.218567,434.658905 
	C290.870178,431.115387 292.529510,427.555237 294.188904,423.995117 
	C297.642456,424.020050 301.096008,424.044983 304.905090,424.461182 
	C303.146515,429.943085 301.032410,435.033722 298.957611,440.029724 
	C300.936615,441.583374 302.467957,442.785553 303.880737,444.343506 
	C299.895416,447.864136 290.665161,448.028931 285.063416,445.036072 
	C280.689728,443.685883 276.717438,442.138062 272.630157,441.005157 
	C263.158142,438.379761 263.138397,438.462860 257.931152,446.876007 
	C257.677521,447.285797 257.299500,447.618591 256.979401,447.987244 
z"/>
<path fill="#87C8C2" opacity="1.000000" stroke="none" 
	d="
M113.029915,242.997559 
	C108.409088,243.331696 103.788971,243.943390 99.167313,243.955383 
	C66.757492,244.039581 34.347351,244.000000 1.468657,244.000000 
	C1.000000,227.645767 1.000000,211.291550 1.468657,194.468658 
	C32.253815,194.011993 62.570312,194.024002 92.907761,194.500610 
	C93.198494,202.643311 93.468277,210.321381 93.829712,218.359940 
	C94.654221,222.273026 97.430550,224.281265 100.377296,223.450226 
	C102.707649,222.793030 104.726944,220.016312 106.205299,217.739838 
	C107.077522,216.396729 106.744820,214.195099 106.752174,212.378754 
	C106.799377,200.723846 106.791412,189.068710 106.799988,177.413651 
	C106.802650,173.797180 106.800407,170.180725 106.800407,166.346558 
	C109.196922,166.346558 110.900452,166.346558 113.029915,166.346558 
	C113.029915,192.133530 113.029915,217.565536 113.029915,242.997559 
z"/>
<path fill="#54A7A3" opacity="1.000000" stroke="none" 
	d="
M362.913422,457.006744 
	C444.296509,457.004517 525.679626,457.002258 607.531372,457.000000 
	C608.000000,464.020966 608.000000,471.041901 607.531372,478.531433 
	C574.959717,479.000000 542.856750,478.986389 510.753815,479.003296 
	C465.677246,479.027069 420.600647,479.073456 375.297272,478.879333 
	C371.018127,471.434570 366.965759,464.220673 362.913422,457.006744 
z"/>
<path fill="#91C9C4" opacity="1.000000" stroke="none" 
	d="
M92.886810,194.035995 
	C62.570312,194.024002 32.253815,194.011993 1.468657,194.000000 
	C1.000000,175.645767 1.000000,157.291550 1.000000,138.468658 
	C26.708426,138.000000 52.417896,138.126846 78.124580,137.915268 
	C84.979134,137.858856 91.825172,136.766281 98.837738,136.434540 
	C94.600182,140.530441 94.074387,145.786423 93.475174,151.439636 
	C93.166138,165.879379 93.026474,179.957687 92.886810,194.035995 
z"/>
<path fill="#4F9E9B" opacity="1.000000" stroke="none" 
	d="
M375.524078,479.110199 
	C420.600647,479.073456 465.677246,479.027069 510.753815,479.003296 
	C542.856750,478.986389 574.959717,479.000000 607.531372,479.000000 
	C608.000000,486.020966 608.000000,493.041901 608.000000,500.531433 
	C535.040527,501.000702 462.081085,501.001434 388.438965,500.730835 
	C384.141968,494.044983 380.527588,487.630432 376.820923,480.992065 
	C376.567291,480.484009 376.359985,480.238647 375.938141,479.816132 
	C375.687744,479.436829 375.605896,479.273499 375.524078,479.110199 
z"/>
<path fill="#91C9C4" opacity="1.000000" stroke="none" 
	d="
M522.919495,142.169205 
	C524.988098,141.779297 527.055664,141.056183 529.125366,141.050049 
	C555.104309,140.972946 581.083557,140.999527 607.531372,140.999786 
	C608.000000,159.687561 608.000000,178.375122 607.531372,197.531082 
	C579.753906,198.013153 552.445129,198.026825 525.104126,197.568481 
	C525.061523,183.352371 525.081238,169.608124 525.006348,155.864380 
	C524.995789,153.922470 524.524048,151.983063 524.176086,149.641449 
	C523.697449,146.883347 523.308472,144.526276 522.919495,142.169205 
z"/>
<path fill="#5DBBB7" opacity="1.000000" stroke="none" 
	d="
M268.946259,428.981842 
	C179.943283,428.987885 90.940292,428.993927 1.468657,429.000000 
	C1.000000,423.645081 1.000000,418.290131 1.000000,412.467590 
	C90.498199,412.000000 179.996399,411.995300 269.494598,412.026276 
	C271.793213,412.027069 274.091736,412.418549 276.574829,413.195068 
	C274.155029,418.835480 271.550629,423.908661 268.946259,428.981842 
z"/>
<path fill="#5CB9B5" opacity="1.000000" stroke="none" 
	d="
M608.000000,434.533142 
	C524.835510,435.000000 441.670990,434.995026 358.506470,435.025970 
	C356.206879,435.026825 353.907440,435.412994 350.994659,435.666290 
	C347.260803,430.139984 344.140228,424.566864 341.019653,418.993713 
	C429.700653,418.995819 518.381653,418.997894 607.531372,419.000000 
	C608.000000,424.022095 608.000000,429.044189 608.000000,434.533142 
z"/>
<path fill="#87C8C2" opacity="1.000000" stroke="none" 
	d="
M525.136353,198.040497 
	C552.445129,198.026825 579.753906,198.013153 607.531372,197.999741 
	C608.000000,213.687561 608.000000,229.375122 607.531372,245.531219 
	C580.039429,245.667389 553.016174,245.335022 525.759827,244.696869 
	C524.562683,235.605759 517.718628,227.076843 524.547302,217.595871 
	C524.859070,210.835129 524.997681,204.437820 525.136353,198.040497 
z"/>
<path fill="#7CC5C0" opacity="1.000000" stroke="none" 
	d="
M525.992920,245.002670 
	C553.016174,245.335022 580.039429,245.667389 607.531372,245.999878 
	C608.000000,261.687561 608.000000,277.375122 608.000000,293.531342 
	C586.886780,294.000061 565.773499,293.975250 544.660461,294.038818 
	C542.557556,294.045135 540.456299,294.589386 537.814697,294.847900 
	C536.258301,290.625702 535.177368,286.453918 534.236511,282.250793 
	C531.458923,269.841400 528.736755,257.419617 525.992920,245.002670 
z"/>
<path fill="#FEFEFE" opacity="1.000000" stroke="none" 
	d="
M93.644531,151.078186 
	C94.074387,145.786423 94.600182,140.530441 99.273125,136.477753 
	C102.138794,135.192200 104.731689,134.148499 108.145363,133.068863 
	C127.963402,132.999344 146.960678,132.965775 165.957947,132.932205 
	C168.006790,133.659683 170.055649,134.387161 172.647980,135.475403 
	C175.496338,140.245743 177.801208,144.655319 180.062668,149.525833 
	C179.999756,166.472931 180.038452,182.959549 179.903793,199.444778 
	C179.881180,202.213028 180.591461,204.039780 183.044998,205.519669 
	C191.018951,210.329224 198.824478,215.419083 206.824677,220.182983 
	C208.118790,220.953583 210.078003,220.789352 211.723648,220.755875 
	C218.784576,220.612259 225.843750,220.372208 232.902359,220.131699 
	C235.261398,220.051315 237.873810,220.479294 239.929108,219.619720 
	C248.511795,216.030197 256.907074,211.995255 265.412720,208.217438 
	C268.770355,206.726089 271.677002,207.286301 273.224854,210.966263 
	C274.726227,214.535736 272.783356,216.682846 269.770966,218.096359 
	C264.205444,220.707809 258.611450,223.260681 252.996063,225.763367 
	C241.175964,231.031357 241.167145,231.011566 241.942429,244.466217 
	C241.922745,261.954681 241.962433,278.977570 242.002136,296.000427 
	C241.935623,300.972626 241.860718,305.944763 241.805313,310.917084 
	C241.762314,314.777069 241.031708,318.553589 236.846420,319.713776 
	C232.899918,320.807831 229.253067,319.744141 227.090179,314.869690 
	C227.016357,301.633118 227.053116,289.196899 226.983032,276.761261 
	C226.973145,275.004608 226.442169,273.250885 226.164581,271.147003 
	C225.021942,269.643188 223.867111,268.488220 222.712280,267.333252 
	C221.796234,268.934631 220.120819,270.520721 220.088272,272.139832 
	C219.888229,282.093475 220.059372,292.054596 220.106995,302.013214 
	C220.046722,305.323944 220.063889,308.638397 219.906281,311.944489 
	C219.714661,315.964417 218.006165,319.082336 213.785660,319.856506 
	C209.544067,320.634491 206.250595,319.267517 204.989349,313.860596 
	C204.967941,287.312775 205.023529,261.587769 204.860474,235.864182 
	C204.849777,234.177048 203.166458,232.500488 202.051544,230.545715 
	C194.770996,225.945709 187.700043,221.618988 180.537766,217.236359 
	C179.001816,221.076614 176.977036,224.343201 172.504425,223.445786 
	C167.619659,222.465652 166.906754,218.585312 166.940918,214.203110 
	C167.052521,199.887360 167.011444,185.569809 166.911072,171.253784 
	C166.899368,169.587234 166.149857,167.925873 165.329483,166.205505 
	C163.466278,166.214798 162.015991,166.280701 160.469284,166.350998 
	C160.312790,167.287430 160.112305,167.927109 160.112350,168.566788 
	C160.115982,216.352493 160.135468,264.138214 160.153687,311.923920 
	C158.303787,318.554932 155.233047,320.674683 148.542297,319.939362 
	C143.270447,319.359985 140.185791,315.551666 140.106415,309.432892 
	C140.048065,304.935425 140.062195,300.437042 140.054504,295.008636 
	C140.069214,276.143066 140.150436,258.207123 139.955658,240.274124 
	C139.936691,238.528427 138.214142,236.801254 137.282379,235.065475 
	C135.962524,236.440887 134.642670,237.816299 133.235107,239.639496 
	C133.164612,264.360626 133.181824,288.633942 133.199036,312.907288 
	C131.804382,318.682343 125.914825,320.878845 119.988525,319.802551 
	C115.612373,319.007782 113.332909,315.184265 113.243462,308.920013 
	C113.167351,303.589996 113.184250,298.258667 113.094391,292.462952 
	C113.069374,275.974976 113.109962,259.951965 113.090233,243.463272 
	C113.029915,217.565536 113.029915,192.133530 113.029915,166.346558 
	C110.900452,166.346558 109.196922,166.346558 106.800407,166.346558 
	C106.800407,170.180725 106.802650,173.797180 106.799988,177.413651 
	C106.791412,189.068710 106.799377,200.723846 106.752174,212.378754 
	C106.744820,214.195099 107.077522,216.396729 106.205299,217.739838 
	C104.726944,220.016312 102.707649,222.793030 100.377296,223.450226 
	C97.430550,224.281265 94.654221,222.273026 93.885033,217.894531 
	C93.780640,195.071823 93.712585,173.075012 93.644531,151.078186 
z"/>
<path fill="#92C9C4" opacity="1.000000" stroke="none" 
	d="
M180.106064,149.064896 
	C177.801208,144.655319 175.496338,140.245743 172.998199,135.567520 
	C175.571854,134.532623 178.337372,133.103439 181.105881,133.097610 
	C241.815079,132.969849 302.524597,133.007126 363.234039,132.972702 
	C365.533722,132.971405 367.833160,132.568771 370.583069,132.551208 
	C372.853302,135.543121 374.082764,139.135468 376.594940,140.993134 
	C387.679047,149.189423 399.527405,144.579376 404.723724,130.457336 
	C406.718140,131.304276 408.693024,132.823975 410.710358,132.882614 
	C419.834747,133.147858 428.973480,132.890381 438.101593,133.080917 
	C440.288086,133.126587 442.453766,134.168167 444.696228,135.320831 
	C440.177063,139.912827 438.068085,145.058014 437.671295,151.419189 
	C437.304718,158.896667 437.174896,166.030823 436.992401,173.163635 
	C436.606079,188.259125 440.048645,185.732117 423.097809,186.014847 
	C420.087524,186.065048 419.010864,184.762024 418.956085,181.828598 
	C418.895111,178.562668 418.386749,175.305069 417.912476,171.707062 
	C415.998230,161.364151 409.094788,157.289993 399.549530,155.654175 
	C391.174469,155.583954 383.141449,155.724442 374.715057,155.931183 
	C366.857239,157.307495 360.732666,160.447098 357.664917,168.393738 
	C357.295990,174.830246 357.134674,180.917175 356.506378,187.003204 
	C322.412415,187.001556 288.785370,187.042938 255.158646,186.957581 
	C249.694504,186.943710 244.231766,186.368484 238.517090,185.846542 
	C235.132370,183.100189 232.372879,179.571335 228.791092,178.216705 
	C220.172195,174.957031 214.066376,177.879852 206.813629,186.988007 
	C199.559784,186.844208 192.590424,186.817780 185.628937,187.038956 
	C182.162628,187.149048 180.880035,185.782791 180.962296,182.348190 
	C181.121735,175.691559 181.112610,169.025909 180.964264,162.368652 
	C180.865356,157.929901 180.404785,153.499207 180.106064,149.064896 
z"/>
<path fill="#FEFEFE" opacity="1.000000" stroke="none" 
	d="
M437.884125,151.075272 
	C438.068085,145.058014 440.177063,139.912827 444.955353,135.633575 
	C447.528168,134.619583 449.909058,133.861969 453.124939,133.067413 
	C472.627197,133.000412 491.294434,132.970337 509.961670,132.940277 
	C515.397461,134.047653 519.777527,136.644882 522.652100,141.956512 
	C523.308472,144.526276 523.697449,146.883347 524.121338,150.102661 
	C524.228882,173.296371 524.301514,195.627823 524.374207,217.959290 
	C517.718628,227.076843 524.562683,235.605759 525.759766,244.696869 
	C528.736755,257.419617 531.458923,269.841400 534.236511,282.250793 
	C535.177368,286.453918 536.258301,290.625702 537.487061,295.148132 
	C539.381653,303.355865 541.064331,311.227325 542.759399,319.156921 
	C539.463379,320.860901 537.778931,320.023315 537.044067,316.524536 
	C535.995117,311.530518 534.673706,306.593689 533.271362,300.904236 
	C532.930908,299.191864 532.858398,298.191345 532.633911,297.226105 
	C529.367859,283.182831 526.081543,269.144318 522.717651,254.729431 
	C520.546570,245.487320 518.459961,236.619934 516.367249,227.753983 
	C515.997803,226.188614 515.818848,224.532852 515.173645,223.087677 
	C513.941589,220.327805 512.437134,217.689468 511.109161,214.535370 
	C511.172546,198.202225 511.172546,182.334412 511.172546,166.394669 
	C508.717529,166.394669 507.020569,166.394669 505.018127,166.394669 
	C505.018127,182.533737 505.018127,198.267181 504.955414,214.465820 
	C504.927826,228.954010 504.962921,242.976974 504.939423,257.465637 
	C504.924957,271.621704 504.969116,285.312012 505.013245,299.002350 
	C504.948395,302.306610 504.884491,305.610931 504.818512,308.915161 
	C504.695282,315.088623 502.438049,318.774994 498.149689,319.809082 
	C492.500610,321.171326 488.063263,319.070251 484.978424,312.800293 
	C484.854645,287.719269 484.798126,263.442291 484.696533,238.806381 
	C483.288361,237.324524 481.925293,236.201599 480.562256,235.078674 
	C479.687836,236.685440 478.093994,238.276505 478.058472,239.901657 
	C477.860657,248.946686 478.040710,257.999969 478.091522,267.050415 
	C478.032776,281.037170 477.992035,295.024078 477.908173,309.010681 
	C477.861908,316.722748 474.041809,320.323608 466.408295,319.951385 
	C461.494324,319.711761 458.429413,316.750397 458.077576,311.812775 
	C457.971313,310.321136 458.046356,308.816254 458.045593,307.317444 
	C458.023193,262.352478 458.001709,217.387527 457.980225,172.422577 
	C457.979309,170.466049 457.980072,168.509521 457.980072,166.076324 
	C455.930939,166.076324 454.475311,166.076324 452.258179,166.380737 
	C451.342957,168.491699 451.061584,170.297836 451.055756,172.104874 
	C451.012085,185.583191 451.023071,199.061691 451.016663,212.540131 
	C451.016113,213.704941 450.978607,214.870926 451.018097,216.034332 
	C451.167480,220.438766 448.880249,223.018845 444.719574,223.599930 
	C441.112518,224.103683 438.084229,220.512329 438.064514,215.966019 
	C437.970764,194.335907 437.938354,172.705551 437.884125,151.075272 
z"/>
<path fill="#FEFEFE" opacity="1.000000" stroke="none" 
	d="
M404.761230,130.078674 
	C399.527405,144.579376 387.679047,149.189423 376.594940,140.993134 
	C374.082764,139.135468 372.853302,135.543121 370.957489,132.385254 
	C368.220093,121.509216 374.086761,112.839119 385.305511,110.704742 
	C394.767120,108.904663 403.540314,116.304482 404.838623,127.210808 
	C404.935822,128.027390 404.817078,128.869659 404.761230,130.078674 
z"/>
<path fill="#FEFEFE" opacity="1.000000" stroke="none" 
	d="
M475.987335,118.470078 
	C467.371643,114.666878 463.076111,107.800766 464.106903,99.930199 
	C465.035126,92.842812 470.988403,86.478424 477.894226,85.190727 
	C485.625305,83.749138 493.032776,87.399818 496.661774,94.440086 
	C502.394653,105.561897 494.385468,118.833168 481.833557,118.959358 
	C480.012360,118.977661 478.188629,118.742882 475.987335,118.470078 
z"/>
<path fill="#FEFEFE" opacity="1.000000" stroke="none" 
	d="
M153.886230,104.523712 
	C150.315796,121.318520 131.851654,122.274620 124.413666,114.071251 
	C119.096962,108.207443 117.970924,100.134819 121.943687,93.388695 
	C125.791283,86.855133 133.533157,83.556404 140.796814,85.355583 
	C148.248459,87.201332 153.724411,93.967514 153.940475,101.610352 
	C153.963974,102.441467 153.929276,103.274239 153.886230,104.523712 
z"/>
<path fill="#92C9C4" opacity="1.000000" stroke="none" 
	d="
M165.615814,132.708527 
	C146.960678,132.965775 127.963402,132.999344 108.503418,132.984100 
	C109.294777,132.624710 110.547951,132.047958 111.803055,132.043732 
	C128.823105,131.986420 145.843414,132.002106 162.863617,132.031143 
	C163.667221,132.032516 164.470352,132.326904 165.615814,132.708527 
z"/>
<path fill="#92C9C4" opacity="1.000000" stroke="none" 
	d="
M509.620544,132.713928 
	C491.294434,132.970337 472.627197,133.000412 453.495422,132.995697 
	C454.282257,132.642029 455.532654,132.049942 456.785156,132.045517 
	C473.479645,131.986450 490.174408,132.003067 506.869080,132.032532 
	C507.672791,132.033951 508.476013,132.329163 509.620544,132.713928 
z"/>
<path fill="#FEFEFE" opacity="1.000000" stroke="none" 
	d="
M269.339661,429.027954 
	C271.550629,423.908661 274.155029,418.835480 276.908203,413.451233 
	C286.567017,396.873199 296.076996,380.606293 306.208313,363.276611 
	C228.154785,363.276611 151.533295,363.276611 74.036270,363.276611 
	C74.036270,359.102081 74.036270,355.513214 73.973907,351.466309 
	C74.074150,348.225281 74.236763,345.442200 74.414017,342.408508 
	C229.721359,342.408508 384.692810,342.408508 540.014343,342.408508 
	C540.139526,345.189850 540.250366,347.651093 540.436951,350.563354 
	C540.424011,354.718048 540.335266,358.421722 539.693237,362.588440 
	C464.818604,363.052673 390.497162,363.047394 316.175781,363.088135 
	C314.082001,363.089294 311.988464,363.581268 309.894836,363.844360 
	C309.894836,363.844360 309.836365,363.756561 309.607910,363.916290 
	C309.562469,364.439819 309.745483,364.803619 309.928528,365.167419 
	C313.891571,372.192932 317.975677,379.155334 321.702301,386.304077 
	C322.348083,387.542816 321.481201,389.570068 321.127472,391.522858 
	C309.390472,400.055267 300.810547,410.808960 294.251587,423.659302 
	C292.529510,427.555237 290.870178,431.115387 289.218567,434.658905 
	C282.658478,432.778687 276.195770,430.926361 269.339661,429.027954 
z"/>
<path fill="#FEFEFE" opacity="1.000000" stroke="none" 
	d="
M357.872559,168.044159 
	C360.732666,160.447098 366.857239,157.307495 375.171326,155.982346 
	C383.977814,155.933121 391.934692,155.898987 399.891571,155.864853 
	C409.094788,157.289993 415.998230,161.364151 417.858551,172.169098 
	C417.941223,185.287476 417.932007,197.607086 417.882996,209.926514 
	C417.870270,213.128952 417.033905,215.999542 413.462677,216.831345 
	C410.179291,217.596054 408.033142,216.001953 406.942017,212.471298 
	C407.002869,201.915573 407.055481,191.819992 406.979065,181.725372 
	C406.967468,180.191254 406.357147,178.661652 405.599335,177.085907 
	C404.424255,178.379288 403.057709,179.701248 403.023651,181.056671 
	C402.815765,189.337524 402.854065,197.626556 402.940460,205.911514 
	C402.964203,208.189804 402.970215,210.643906 403.775543,212.708755 
	C407.738190,222.869003 411.967133,232.925354 416.172302,243.369690 
	C418.696320,249.854202 421.150116,255.987411 423.919342,262.908997 
	C415.682312,262.908997 408.979858,262.908997 402.115601,262.908997 
	C402.115601,273.839325 402.115601,284.426483 402.115601,295.013672 
	C402.062500,300.174438 401.994995,305.335083 401.959747,310.495972 
	C401.913055,317.329712 400.201416,319.999237 395.853363,319.953949 
	C391.421173,319.907776 389.233185,316.731018 389.214264,310.129456 
	C389.175171,296.472382 389.181458,282.815186 389.168884,269.158020 
	C389.167969,268.158722 389.369904,267.103729 389.116272,266.173126 
	C388.735443,264.776154 388.034821,263.466370 387.470215,262.119476 
	C386.923553,263.486084 385.913910,264.848511 385.901520,266.219910 
	C385.771912,280.542236 385.819214,294.866058 385.767334,309.189270 
	C385.760742,311.004730 385.674530,312.867981 385.261719,314.623627 
	C384.448547,318.081726 382.338928,320.224213 378.532562,319.935272 
	C374.568237,319.634338 373.172485,316.883759 373.061310,313.431335 
	C372.884552,307.940338 372.975220,302.440765 372.962708,296.013580 
	C372.972595,284.210754 372.972595,273.339203 372.972595,262.518829 
	C365.464783,262.518829 358.641754,262.518829 351.488312,262.518829 
	C353.390900,256.937683 355.235168,251.527466 357.369934,245.913239 
	C362.247406,234.505539 366.845581,223.306396 371.400238,212.089600 
	C371.765839,211.189133 372.006470,210.167953 372.010773,209.201569 
	C372.053619,199.557251 372.016785,189.912582 372.046936,180.268173 
	C372.053619,178.128510 371.629913,176.583878 368.646759,177.405457 
	C368.252136,189.409348 368.184082,201.161484 368.019104,213.270813 
	C364.488159,218.247589 361.969086,218.338745 357.957764,213.523773 
	C357.956604,198.053040 357.914581,183.048599 357.872559,168.044159 
z"/>
<path fill="#7CC5C0" opacity="1.000000" stroke="none" 
	d="
M357.079468,246.117218 
	C355.235168,251.527466 353.390900,256.937683 351.488312,262.518829 
	C358.641754,262.518829 365.464783,262.518829 372.972595,262.518829 
	C372.972595,273.339203 372.972595,284.210754 372.910889,295.548645 
	C368.558746,296.343292 364.268890,296.947449 359.977814,296.956573 
	C324.059937,297.032928 288.141815,297.023315 252.223877,296.958984 
	C249.096207,296.953369 245.969574,296.370514 242.422287,296.028107 
	C241.962433,278.977570 241.922745,261.954681 242.362610,244.493652 
	C245.965546,244.370041 249.088364,244.951614 252.212341,244.957977 
	C284.931519,245.024673 317.650940,244.977356 350.370117,245.047302 
	C352.607300,245.052094 354.843048,245.744568 357.079468,246.117218 
z"/>
<path fill="#7CC5C0" opacity="1.000000" stroke="none" 
	d="
M402.576233,295.009705 
	C402.115601,284.426483 402.115601,273.839325 402.115601,262.908997 
	C408.979858,262.908997 415.682312,262.908997 423.919342,262.908997 
	C421.150116,255.987411 418.696320,249.854202 416.633575,243.364075 
	C430.342285,243.003708 443.659912,243.000244 456.977570,242.996765 
	C456.982758,258.449554 456.858124,273.904144 457.076385,289.353912 
	C457.137787,293.699677 455.785370,295.143341 451.388123,295.084930 
	C435.273529,294.870911 419.154327,295.003571 402.576233,295.009705 
z"/>
<path fill="#7CC5C0" opacity="1.000000" stroke="none" 
	d="
M202.261154,230.819016 
	C203.166458,232.500488 204.849777,234.177048 204.860474,235.864182 
	C205.023529,261.587769 204.967941,287.312775 204.903473,313.499573 
	C204.560638,307.529205 203.988541,301.091919 204.095673,294.665924 
	C204.167953,290.330383 202.817169,288.824127 198.395599,288.915710 
	C186.258408,289.167053 174.112625,289.003967 161.490326,288.536926 
	C161.009338,269.720276 161.008286,251.371689 161.475159,233.016602 
	C173.270035,233.007080 184.599075,233.114639 195.922104,232.902634 
	C198.047379,232.862839 200.148758,231.546341 202.261154,230.819016 
z"/>
<path fill="#88C7C1" opacity="1.000000" stroke="none" 
	d="
M456.983459,242.528458 
	C443.659912,243.000244 430.342285,243.003708 416.563354,243.012787 
	C411.967133,232.925354 407.738190,222.869003 403.775543,212.708755 
	C402.970215,210.643906 402.964203,208.189804 402.940460,205.911514 
	C402.854065,197.626556 402.815765,189.337524 403.023651,181.056671 
	C403.057709,179.701248 404.424255,178.379288 405.594788,177.544342 
	C406.009827,186.444031 405.923859,194.842407 406.041321,203.237930 
	C406.086578,206.472534 406.594482,209.700668 406.891602,212.931747 
	C408.033142,216.001953 410.179291,217.596054 413.462677,216.831345 
	C417.033905,215.999542 417.870270,213.128952 417.882996,209.926514 
	C417.932007,197.607086 417.941223,185.287476 418.019226,172.505890 
	C418.386749,175.305069 418.895111,178.562668 418.956085,181.828598 
	C419.010864,184.762024 420.087524,186.065048 423.097809,186.014847 
	C440.048645,185.732117 436.606079,188.259125 436.992401,173.163635 
	C437.174896,166.030823 437.304718,158.896667 437.671295,151.419189 
	C437.938354,172.705551 437.970764,194.335907 438.064514,215.966019 
	C438.084229,220.512329 441.112518,224.103683 444.719574,223.599930 
	C448.880249,223.018845 451.167480,220.438766 451.018097,216.034332 
	C450.978607,214.870926 451.016113,213.704941 451.016663,212.540131 
	C451.023071,199.061691 451.012085,185.583191 451.055756,172.104874 
	C451.061584,170.297836 451.342957,168.491699 451.838928,166.451080 
	C456.322083,166.758102 457.145325,169.242096 457.113007,173.142563 
	C456.922546,196.113861 457.001282,219.087372 456.983459,242.528458 
z"/>
<path fill="#7CC5C0" opacity="1.000000" stroke="none" 
	d="
M522.800049,255.104645 
	C526.081543,269.144318 529.367859,283.182831 532.633911,297.226105 
	C532.858398,298.191345 532.930908,299.191864 533.059082,300.586731 
	C526.622925,300.997864 520.194580,301.173645 513.783813,300.915283 
	C511.091675,300.806793 508.436584,299.779633 505.388947,299.086243 
	C504.969116,285.312012 504.924957,271.621704 505.348785,257.544373 
	C511.612457,257.586731 517.701172,260.440613 522.800049,255.104645 
z"/>
<path fill="#7CC5C0" opacity="1.000000" stroke="none" 
	d="
M133.322815,239.191696 
	C134.642670,237.816299 135.962524,236.440887 137.282379,235.065475 
	C138.214142,236.801254 139.936691,238.528427 139.955658,240.274124 
	C140.150436,258.207123 140.069214,276.143066 139.998566,294.543793 
	C138.219299,295.329590 136.506454,295.649811 134.396698,295.524994 
	C133.979706,279.085663 133.986984,263.091278 133.912338,247.097229 
	C133.900040,244.461197 133.528397,241.826828 133.322815,239.191696 
z"/>
<path fill="#7CC5C0" opacity="1.000000" stroke="none" 
	d="
M478.309021,267.395325 
	C478.040710,257.999969 477.860657,248.946686 478.058472,239.901657 
	C478.093994,238.276505 479.687836,236.685440 480.562256,235.078674 
	C481.925293,236.201599 483.288361,237.324524 484.521210,239.161316 
	C484.282257,241.687286 484.084259,243.499115 484.078705,245.311554 
	C484.026062,262.547882 484.006042,279.784332 483.976685,297.020752 
	C480.028351,297.507721 478.893066,295.635284 478.932159,291.859558 
	C479.015320,283.822021 478.686493,275.780243 478.309021,267.395325 
z"/>
<path fill="#7CC5C0" opacity="1.000000" stroke="none" 
	d="
M220.419617,302.108032 
	C220.059372,292.054596 219.888229,282.093475 220.088272,272.139832 
	C220.120819,270.520721 221.796234,268.934631 222.712280,267.333252 
	C223.867111,268.488220 225.021942,269.643188 226.133270,271.658600 
	C226.050812,283.345764 226.011856,294.172546 225.972900,304.999298 
	C224.226013,304.067139 222.479141,303.134979 220.419617,302.108032 
z"/>
<path fill="#5AB4B0" opacity="1.000000" stroke="none" 
	d="
M161.007233,233.023087 
	C161.008286,251.371689 161.009338,269.720276 161.024033,288.538330 
	C160.881897,296.414551 160.726120,303.821350 160.362030,311.576019 
	C160.135468,264.138214 160.115982,216.352493 160.112350,168.566788 
	C160.112305,167.927109 160.312790,167.287430 160.469284,166.350998 
	C162.015991,166.280701 163.466278,166.214798 165.013733,166.364990 
	C161.241104,166.676010 160.850235,169.102432 160.869934,172.302017 
	C160.994476,192.541885 160.977509,212.782639 161.007233,233.023087 
z"/>
<path fill="#55ABA7" opacity="1.000000" stroke="none" 
	d="
M483.994934,297.484314 
	C484.006042,279.784332 484.026062,262.547882 484.078705,245.311554 
	C484.084259,243.499115 484.282257,241.687286 484.566284,239.520233 
	C484.798126,263.442291 484.854645,287.719269 484.858612,312.457397 
	C484.541748,307.928314 484.277466,302.938080 483.994934,297.484314 
z"/>
<path fill="#54A7A3" opacity="1.000000" stroke="none" 
	d="
M133.235107,239.639496 
	C133.528397,241.826828 133.900040,244.461197 133.912338,247.097229 
	C133.986984,263.091278 133.979706,279.085663 134.021912,295.550720 
	C133.890793,301.413879 133.737564,306.806274 133.391693,312.552979 
	C133.181824,288.633942 133.164612,264.360626 133.235107,239.639496 
z"/>
<path fill="#88C7C1" opacity="1.000000" stroke="none" 
	d="
M225.980774,305.443237 
	C226.011856,294.172546 226.050812,283.345764 226.121078,272.007416 
	C226.442169,273.250885 226.973145,275.004608 226.983032,276.761261 
	C227.053116,289.196899 227.016357,301.633118 226.971924,314.536926 
	C226.616333,311.965546 226.302505,308.926331 225.980774,305.443237 
z"/>
<path fill="#FEFEFE" opacity="1.000000" stroke="none" 
	d="
M340.776733,418.751740 
	C344.140228,424.566864 347.260803,430.139984 350.658752,435.919342 
	C354.748657,442.948700 358.561188,449.771820 362.643555,456.800842 
	C366.965759,464.220673 371.018127,471.434570 375.297272,478.879333 
	C375.605896,479.273499 375.687744,479.436829 375.959137,480.075317 
	C376.403564,480.772278 376.658386,480.994080 376.913208,481.215912 
	C380.527588,487.630432 384.141968,494.044983 387.983521,500.727997 
	C391.205475,506.469727 394.200226,511.942932 397.505127,517.982910 
	C379.052124,517.982910 361.361877,517.982910 343.887604,517.982910 
	C342.805725,510.772797 341.776611,503.914520 340.477051,496.355591 
	C336.190247,486.739563 332.173889,477.824219 328.058655,468.577271 
	C321.623291,458.529510 313.823273,450.259064 303.999268,443.987732 
	C302.467957,442.785553 300.936615,441.583374 298.957611,440.029724 
	C301.032410,435.033722 303.146515,429.943085 305.319641,424.478394 
	C309.169952,419.323578 312.822998,414.423767 316.800140,409.802917 
	C319.551239,406.606445 322.612488,403.637085 325.798401,400.869232 
	C327.786926,399.141693 329.623932,399.782013 330.995789,402.225189 
	C334.075378,407.709412 337.342865,413.088104 340.776733,418.751740 
z"/>
<path fill="#FEFEFE" opacity="1.000000" stroke="none" 
	d="
M256.906616,448.328735 
	C257.299500,447.618591 257.677521,447.285797 257.931152,446.876007 
	C263.138397,438.462860 263.158142,438.379761 272.630157,441.005157 
	C276.717438,442.138062 280.689728,443.685883 285.219116,445.431702 
	C285.555664,448.228912 285.387299,450.639679 285.133362,453.364258 
	C285.075500,454.108978 285.103180,454.539856 285.064270,455.397308 
	C284.996094,457.547943 284.994507,459.271942 284.899506,461.449860 
	C284.914459,465.610596 285.022858,469.317413 285.068726,473.440155 
	C287.283783,482.247375 289.561340,490.638733 291.838898,499.030060 
	C294.902557,505.223633 297.966217,511.417236 301.159698,517.873291 
	C273.506256,517.873291 245.617859,517.873291 217.081589,517.873291 
	C220.819946,511.272949 224.378738,504.989685 228.010757,498.359680 
	C233.023758,489.604980 237.963516,481.196960 242.982910,472.452148 
	C247.652985,464.300293 252.243408,456.485260 256.906616,448.328735 
z"/>
<path fill="#FEFEFE" opacity="1.000000" stroke="none" 
	d="
M330.150940,498.995026 
	C330.993286,505.135620 331.835663,511.276245 332.789551,518.229797 
	C327.038330,518.229797 322.302887,518.397461 317.594543,518.114624 
	C316.381439,518.041809 314.905151,516.789307 314.145111,515.673279 
	C310.339752,510.085632 306.732361,504.363220 302.784668,498.041809 
	C300.066437,488.130676 297.618866,478.865875 295.211731,469.186890 
	C295.159210,466.515320 295.066284,464.257965 295.087097,461.612427 
	C295.666931,458.224854 296.133057,455.225494 296.599182,452.226135 
	C297.109528,451.925629 297.619904,451.625153 298.130249,451.324646 
	C304.728943,458.244171 311.327637,465.163696 318.038147,472.409119 
	C322.150330,481.488342 326.150635,490.241699 330.150940,498.995026 
z"/>
<path fill="#51A19D" opacity="1.000000" stroke="none" 
	d="
M330.594604,498.996277 
	C326.150635,490.241699 322.150330,481.488342 318.348999,472.176086 
	C321.751190,470.714447 324.954376,469.811676 328.157562,468.908875 
	C332.173889,477.824219 336.190247,486.739563 340.235413,496.018707 
	C338.252502,501.006561 334.135529,498.203186 330.594604,498.996277 
z"/>
<path fill="#51A19D" opacity="1.000000" stroke="none" 
	d="
M295.171295,469.601105 
	C297.618866,478.865875 300.066437,488.130676 302.608643,497.729309 
	C299.384064,498.381531 296.064880,498.699921 292.292297,499.024170 
	C289.561340,490.638733 287.283783,482.247375 285.432556,473.602905 
	C293.116486,474.866272 294.171204,474.441711 295.171295,469.601105 
z"/>
<path fill="#71C3BE" opacity="1.000000" stroke="none" 
	d="
M310.369202,363.888733 
	C311.988464,363.581268 314.082001,363.089294 316.175781,363.088135 
	C390.497162,363.047394 464.818604,363.052673 539.613892,363.046387 
	C539.085144,363.365326 538.082703,363.972778 537.080078,363.973022 
	C461.667908,363.990387 386.255768,363.959839 310.369202,363.888733 
z"/>
<path fill="#71C3BE" opacity="1.000000" stroke="none" 
	d="
M309.899109,364.824646 
	C309.745483,364.803619 309.562469,364.439819 309.561218,363.940857 
	C309.785217,364.031067 309.827454,364.256470 309.899109,364.824646 
z"/>
<path fill="#55ABA7" opacity="1.000000" stroke="none" 
	d="
M328.058655,468.577271 
	C324.954376,469.811676 321.751190,470.714447 318.237122,471.850220 
	C311.327637,465.163696 304.728943,458.244171 298.130249,451.324646 
	C297.619904,451.625153 297.109528,451.925629 296.599182,452.226135 
	C296.133057,455.225494 295.666931,458.224854 294.653381,461.612335 
	C291.068298,461.665619 288.030609,461.330780 284.992950,460.995972 
	C284.994507,459.271942 284.996094,457.547943 285.214661,455.233337 
	C285.360718,454.112000 285.289825,453.581207 285.218933,453.050415 
	C285.387299,450.639679 285.555664,448.228912 285.568298,445.422546 
	C290.665161,448.028931 299.895416,447.864136 303.880737,444.343506 
	C313.823273,450.259064 321.623291,458.529510 328.058655,468.577271 
z"/>
<path fill="#ACCAC8" opacity="1.000000" stroke="none" 
	d="
M93.475166,151.439636 
	C93.712585,173.075012 93.780640,195.071823 93.793373,217.534058 
	C93.468277,210.321381 93.198494,202.643311 92.907761,194.500610 
	C93.026474,179.957687 93.166138,165.879379 93.475166,151.439636 
z"/>
<path fill="#54A7A3" opacity="1.000000" stroke="none" 
	d="
M376.820923,480.992065 
	C376.658386,480.994080 376.403564,480.772278 376.127716,480.291321 
	C376.359985,480.238647 376.567291,480.484009 376.820923,480.992065 
z"/>
<path fill="#ACCAC8" opacity="1.000000" stroke="none" 
	d="
M524.547302,217.595871 
	C524.301514,195.627823 524.228882,173.296371 524.210938,150.503693 
	C524.524048,151.983063 524.995789,153.922470 525.006348,155.864380 
	C525.081238,169.608124 525.061523,183.352371 525.104126,197.568481 
	C524.997681,204.437820 524.859070,210.835129 524.547302,217.595871 
z"/>
<path fill="#88C7C1" opacity="1.000000" stroke="none" 
	d="
M357.369934,245.913223 
	C354.843048,245.744568 352.607300,245.052094 350.370117,245.047302 
	C317.650940,244.977356 284.931519,245.024673 252.212341,244.957977 
	C249.088364,244.951614 245.965546,244.370041 242.421997,244.028076 
	C241.167145,231.011566 241.175964,231.031357 252.996063,225.763367 
	C258.611450,223.260681 264.205444,220.707809 269.770966,218.096359 
	C272.783356,216.682846 274.726227,214.535736 273.224854,210.966263 
	C271.677002,207.286301 268.770355,206.726089 265.412720,208.217438 
	C256.907074,211.995255 248.511795,216.030197 239.929108,219.619720 
	C237.873810,220.479294 235.261398,220.051315 232.902359,220.131699 
	C225.843750,220.372208 218.784576,220.612259 211.723648,220.755875 
	C210.078003,220.789352 208.118790,220.953583 206.824677,220.182983 
	C198.824478,215.419083 191.018951,210.329224 183.044998,205.519669 
	C180.591461,204.039780 179.881180,202.213028 179.903793,199.444778 
	C180.038452,182.959549 179.999756,166.472931 180.062668,149.525833 
	C180.404785,153.499207 180.865356,157.929901 180.964264,162.368652 
	C181.112610,169.025909 181.121735,175.691559 180.962296,182.348190 
	C180.880035,185.782791 182.162628,187.149048 185.628937,187.038956 
	C192.590424,186.817780 199.559784,186.844208 206.757202,187.382141 
	C204.511414,197.132538 207.761032,205.724258 215.092773,209.422882 
	C222.697845,213.259399 231.348465,211.412598 236.711090,205.006210 
	C240.914581,199.984589 239.924942,194.085297 239.824463,188.076065 
	C239.536209,187.564316 239.331467,187.294769 239.032547,186.783783 
	C238.881714,186.379150 238.825043,186.215942 238.768387,186.052734 
	C244.231766,186.368484 249.694504,186.943710 255.158646,186.957581 
	C288.785370,187.042938 322.412415,187.001556 356.513275,187.471390 
	C356.990662,190.415680 356.911469,192.894333 357.013855,195.365463 
	C357.271179,201.575470 357.610504,207.782089 357.916931,213.990067 
	C361.969086,218.338745 364.488159,218.247589 368.233643,212.928925 
	C368.687866,200.537781 368.830566,188.845734 368.973297,177.153671 
	C371.629913,176.583878 372.053619,178.128510 372.046936,180.268173 
	C372.016785,189.912582 372.053619,199.557251 372.010773,209.201569 
	C372.006470,210.167953 371.765839,211.189133 371.400238,212.089600 
	C366.845581,223.306396 362.247406,234.505539 357.369934,245.913223 
z"/>
<path fill="#88C7C1" opacity="1.000000" stroke="none" 
	d="
M161.475159,233.016602 
	C160.977509,212.782639 160.994476,192.541885 160.869934,172.302017 
	C160.850235,169.102432 161.241104,166.676010 165.426666,166.421585 
	C166.149857,167.925873 166.899368,169.587234 166.911072,171.253784 
	C167.011444,185.569809 167.052521,199.887360 166.940918,214.203110 
	C166.906754,218.585312 167.619659,222.465652 172.504425,223.445786 
	C176.977036,224.343201 179.001816,221.076614 180.537766,217.236359 
	C187.700043,221.618988 194.770996,225.945709 202.051544,230.545715 
	C200.148758,231.546341 198.047379,232.862839 195.922104,232.902634 
	C184.599075,233.114639 173.270035,233.007080 161.475159,233.016602 
z"/>
<path fill="#FEFEFE" opacity="1.000000" stroke="none" 
	d="
M239.907990,188.318268 
	C239.924942,194.085297 240.914581,199.984589 236.711090,205.006210 
	C231.348465,211.412598 222.697845,213.259399 215.092773,209.422882 
	C207.761032,205.724258 204.511414,197.132538 207.044922,187.601700 
	C214.066376,177.879852 220.172195,174.957031 228.791092,178.216705 
	C232.372879,179.571335 235.132370,183.100189 238.517090,185.846542 
	C238.825043,186.215942 238.881714,186.379150 239.067505,187.046570 
	C239.433746,187.806595 239.670868,188.062424 239.907990,188.318268 
z"/>
<path fill="#9BC9C5" opacity="1.000000" stroke="none" 
	d="
M357.957794,213.523773 
	C357.610504,207.782089 357.271179,201.575470 357.013855,195.365463 
	C356.911469,192.894333 356.990662,190.415680 356.980286,187.472290 
	C357.134674,180.917175 357.295990,174.830246 357.664948,168.393738 
	C357.914581,183.048599 357.956604,198.053040 357.957794,213.523773 
z"/>
<path fill="#7CC5C0" opacity="1.000000" stroke="none" 
	d="
M399.549530,155.654175 
	C391.934692,155.898987 383.977814,155.933121 375.564697,155.916092 
	C383.141449,155.724442 391.174469,155.583954 399.549530,155.654175 
z"/>
<path fill="#87C8C2" opacity="1.000000" stroke="none" 
	d="
M522.717651,254.729431 
	C517.701172,260.440613 511.612457,257.586731 505.407379,257.078674 
	C504.962921,242.976974 504.927826,228.954010 505.337219,214.487061 
	C507.536407,214.362289 509.291107,214.681503 511.045776,215.000702 
	C512.437134,217.689468 513.941589,220.327805 515.173645,223.087677 
	C515.818848,224.532852 515.997803,226.188614 516.367249,227.753983 
	C518.459961,236.619934 520.546570,245.487320 522.717651,254.729431 
z"/>
<path fill="#88C7C1" opacity="1.000000" stroke="none" 
	d="
M511.109161,214.535370 
	C509.291107,214.681503 507.536407,214.362289 505.399933,214.021851 
	C505.018127,198.267181 505.018127,182.533737 505.018127,166.394669 
	C507.020569,166.394669 508.717529,166.394669 511.172546,166.394669 
	C511.172546,182.334412 511.172546,198.202225 511.109161,214.535370 
z"/>
<path fill="#7CC5C0" opacity="1.000000" stroke="none" 
	d="
M368.646759,177.405457 
	C368.830566,188.845734 368.687866,200.537781 368.330566,212.571716 
	C368.184082,201.161484 368.252136,189.409348 368.646759,177.405457 
z"/>
<path fill="#7CC5C0" opacity="1.000000" stroke="none" 
	d="
M406.941986,212.471298 
	C406.594482,209.700668 406.086578,206.472534 406.041321,203.237930 
	C405.923859,194.842407 406.009827,186.444031 406.019165,177.588379 
	C406.357147,178.661652 406.967468,180.191254 406.979065,181.725372 
	C407.055481,191.819992 407.002869,201.915573 406.941986,212.471298 
z"/>
<path fill="#54A7A3" opacity="1.000000" stroke="none" 
	d="
M284.899506,461.449860 
	C288.030609,461.330780 291.068298,461.665619 294.539673,462.000549 
	C295.066284,464.257965 295.159210,466.515320 295.211731,469.186890 
	C294.171204,474.441711 293.116486,474.866272 285.495056,473.187012 
	C285.022858,469.317413 284.914459,465.610596 284.899506,461.449860 
z"/>
<path fill="#54A7A3" opacity="1.000000" stroke="none" 
	d="
M285.133362,453.364258 
	C285.289825,453.581207 285.360718,454.112000 285.281250,454.806763 
	C285.103180,454.539856 285.075500,454.108978 285.133362,453.364258 
z"/>
<path fill="#92C9C4" opacity="1.000000" stroke="none" 
	d="
M239.824463,188.076065 
	C239.670868,188.062424 239.433746,187.806595 239.161667,187.287994 
	C239.331467,187.294769 239.536209,187.564316 239.824463,188.076065 
z"/>
</svg>