 <svg  version="1.0" xmlns="http://www.w3.org/2000/svg"  width="300.000000pt" height="300.000000pt" viewBox="0 0 300.000000 300.000000"  preserveAspectRatio="xMidYMid meet">  <g transform="translate(0.000000,300.000000) scale(0.100000,-0.100000)" fill="#e2725b" stroke="none"> <path d="M734 2550 c25 -38 21 -85 -10 -109 -32 -25 -70 -27 -104 -5 l-25 16 24 -21 c78 -69 189 42 120 120 l-21 24 16 -25z"/> <path d="M2445 2534 c36 -74 -41 -141 -118 -103 -21 10 -21 10 -3 -5 29 -23 80 -20 111 7 33 28 39 88 12 115 -17 16 -17 15 -2 -14z"/> <path d="M1978 2420 c19 -22 15 -77 -8 -100 -29 -29 -63 -34 -99 -16 -17 9 -31 14 -31 12 0 -10 59 -36 79 -36 11 0 33 12 50 26 25 20 31 34 31 64 0 24 -6 42 -17 51 -15 11 -16 11 -5 -1z"/> <path d="M867 2315 c4 -11 10 -87 13 -170 l6 -150 2 145 c1 115 -2 150 -14 170 -9 14 -12 16 -7 5z"/> <path d="M2570 2312 c8 -17 11 -89 9 -245 l-2 -222 38 -162 c21 -90 40 -161 43 -159 3 4 -24 131 -62 288 -9 38 -12 83 -7 140 9 128 -1 354 -18 370 -11 11 -12 9 -1 -10z"/> <path d="M1883 2233 c15 -2 39 -2 55 0 15 2 2 4 -28 4 -30 0 -43 -2 -27 -4z"/> <path d="M2035 2201 c17 -19 21 -42 23 -137 4 -110 3 -114 -19 -122 -18 -7 -19 -10 -6 -15 31 -12 39 18 35 137 -3 108 -5 117 -28 138 l-24 23 19 -24z"/> <path d="M520 2056 c0 -105 -3 -136 -15 -146 -8 -6 -20 -8 -26 -4 -8 4 -9 3 -5 -4 11 -18 34 -14 46 7 5 11 10 76 10 145 0 110 2 125 18 129 13 4 11 5 -5 6 -23 1 -23 0 -23 -133z"/> <path d="M778 1813 l-3 -378 -28 -3 c-16 -2 -36 3 -45 10 -15 12 -16 11 -4 -4 19 -24 47 -31 72 -18 20 10 20 19 20 385 0 347 1 374 18 378 13 4 12 5 -5 6 l-23 1 -2 -377z"/> <path d="M2220 2051 c0 -118 -2 -140 -16 -145 -9 -3 -21 -3 -27 0 -7 4 -7 1 1 -7 9 -10 17 -11 30 -3 14 9 18 33 22 145 4 100 8 133 18 132 6 -2 12 2 12 7 0 6 -9 10 -20 10 -19 0 -20 -7 -20 -139z"/> <path d="M2490 1807 c0 -382 0 -384 -60 -375 -30 4 -31 4 -15 -9 26 -18 42 -16 65 7 19 19 20 33 20 370 0 193 -2 350 -5 350 -3 0 -5 -154 -5 -343z"/> <path d="M1810 2035 c0 -91 -1 -95 -22 -95 -17 0 -19 -3 -10 -12 8 -8 15 -8 27 2 11 9 15 33 15 100 0 61 4 90 13 93 7 3 5 6 -5 6 -16 1 -18 -10 -18 -94z"/> <path d="M1980 2048 c1 -52 6 -94 16 -113 8 -16 12 -21 8 -10 -13 41 -14 189 -1 197 8 5 6 8 -5 8 -16 0 -18 -10 -18 -82z"/> <path d="M1159 2094 c26 -33 27 -64 1 -97 -26 -33 -63 -41 -103 -22 l-32 16 25 -20 c36 -30 76 -27 111 8 35 36 39 86 9 119 -29 31 -36 28 -11 -4z"/> <path d="M1337 1958 c4 -21 -3 -27 -71 -57 l-76 -33 0 -207 c0 -113 -4 -212 -9 -220 -6 -9 -19 -12 -37 -8 -27 5 -27 4 -9 -9 24 -18 30 -18 49 2 14 13 16 48 16 224 l0 208 70 33 c84 39 100 54 78 75 -14 14 -15 14 -11 -8z"/> <path d="M880 1926 c0 -16 -27 -29 -42 -19 -7 3 -8 1 -4 -5 10 -17 31 -15 46 3 7 9 19 14 27 11 20 -8 15 2 -7 14 -16 8 -20 8 -20 -4z"/> <path d="M930 1907 c0 -3 18 -16 40 -31 22 -14 40 -23 40 -19 0 5 -18 18 -40 31 -22 12 -40 21 -40 19z"/> <path d="M2012 1890 c24 -64 61 -150 64 -147 5 4 -53 148 -63 156 -3 3 -4 -1 -1 -9z"/> <path d="M657 1843 c-4 -3 -7 -92 -7 -198 0 -207 -2 -215 -55 -216 -28 0 -29 -1 -8 -11 17 -8 28 -7 47 6 l26 16 2 198 c2 157 6 196 16 194 8 -1 11 2 7 8 -7 12 -19 13 -28 3z"/> <path d="M2358 1848 c-1 -2 -4 -95 -7 -208 l-6 -205 -37 0 c-29 0 -34 -3 -25 -13 10 -13 54 -9 69 6 3 4 9 97 12 207 2 110 5 201 5 203 1 2 6 0 13 -4 7 -4 8 -3 4 4 -6 11 -23 16 -28 10z"/> <path d="M2080 1720 c0 -5 -22 -10 -50 -10 l-49 0 -3 -137 c-3 -137 -3 -138 -27 -141 -18 -3 -21 -6 -11 -12 8 -5 22 -4 32 1 16 9 18 25 18 144 l0 135 50 0 c38 0 50 4 50 15 0 8 -2 15 -5 15 -3 0 -5 -4 -5 -10z"/> <path d="M1763 1703 c15 -2 39 -2 55 0 15 2 2 4 -28 4 -30 0 -43 -2 -27 -4z"/> <path d="M1900 1583 c0 -71 -4 -134 -9 -142 -5 -8 -18 -12 -31 -8 -17 4 -19 3 -9 -9 13 -16 19 -17 39 -4 12 7 16 40 20 150 3 77 2 140 -2 140 -5 0 -8 -57 -8 -127z"/> <path d="M1087 1683 c-4 -3 -7 -56 -7 -117 0 -61 -4 -117 -9 -125 -6 -9 -19 -12 -37 -8 -27 5 -27 4 -9 -9 24 -18 30 -18 49 2 13 12 16 39 16 128 0 74 4 116 12 124 7 7 8 12 2 12 -6 0 -14 -3 -17 -7z"/> <path d="M2666 1473 c4 -29 2 -43 -6 -43 -6 0 -8 -4 -5 -10 22 -35 34 32 14 75 -6 14 -7 8 -3 -22z"/> <path d="M2660 1261 l0 -51 -570 0 c-314 0 -570 -2 -570 -5 0 -2 15 -30 34 -62 l34 -58 -61 -65 c-34 -36 -71 -85 -81 -110 -11 -25 -20 -46 -21 -47 0 -1 -23 4 -50 12 -26 8 -45 12 -42 8 8 -7 76 -33 89 -33 4 0 21 27 39 61 18 33 57 85 87 114 l54 55 -31 53 c-17 30 -31 57 -31 61 0 3 254 6 564 6 505 0 564 2 570 16 10 25 7 82 -4 89 -6 4 -10 -13 -10 -44z"/> <path d="M652 1203 c159 -2 417 -2 575 0 159 1 29 2 -287 2 -316 0 -446 -1 -288 -2z"/> <path d="M1638 998 c11 -18 82 -141 157 -273 75 -132 141 -244 146 -249 21 -22 3 -26 -123 -26 -73 0 -128 -4 -122 -8 7 -4 71 -6 143 -4 l132 3 -30 52 c-17 29 -93 161 -168 294 -76 133 -142 242 -146 242 -5 1 0 -14 11 -31z"/> <path d="M1490 813 c14 -9 49 -42 79 -72 30 -31 49 -46 43 -34 -14 26 -122 123 -136 122 -6 0 0 -7 14 -16z"/> <path d="M1395 803 c6 -4 10 -54 11 -110 0 -95 2 -106 35 -172 l35 -71 -198 0 c-109 0 -198 -3 -198 -7 0 -7 401 -6 407 0 1 2 -12 30 -28 64 -36 75 -51 149 -47 232 2 50 0 65 -12 68 -9 3 -11 1 -5 -4z"/> <path d="M1518 718 c61 -67 103 -151 110 -220 l5 -48 -39 0 c-41 0 -55 15 -98 95 -8 17 -15 26 -16 20 0 -5 14 -34 31 -63 31 -55 51 -68 97 -67 26 0 27 2 26 60 -1 82 -37 155 -111 225 l-57 55 52 -57z"/> <path d="M1641 645 c0 -5 6 -21 14 -35 8 -14 14 -20 14 -15 0 6 -6 21 -14 35 -8 14 -14 21 -14 15z"/> </g> </svg> 