<?xml version="1.0" standalone="no"?>
<!DOCTYPE svg PUBLIC "-//W3C//DTD SVG 20010904//EN"
 "http://www.w3.org/TR/2001/REC-SVG-20010904/DTD/svg10.dtd">
<svg version="1.0" xmlns="http://www.w3.org/2000/svg"
 width="1536.000000pt" height="1536.000000pt" viewBox="0 0 1536.000000 1536.000000"
 preserveAspectRatio="xMidYMid meet">
<metadata>
Created by potrace 1.10, written by Peter Selinger 2001-2011
</metadata>
<g transform="translate(0.000000,1536.000000) scale(0.100000,-0.100000)"
fill="#000000" stroke="none">
<path d="M3115 13401 c-27 -5 -68 -15 -90 -23 -131 -51 -92 -14 -1503 -1422
-1203 -1200 -1400 -1402 -1449 -1481 -19 -31 -44 -86 -56 -125 -16 -55 -20
-248 -6 -310 16 -70 65 -164 125 -237 58 -72 2662 -2675 2724 -2724 59 -46
143 -88 200 -100 155 -32 166 -32 320 0 143 30 301 164 367 311 42 94 47 117
51 238 3 105 0 132 -18 183 -55 162 -18 119 -916 1019 -459 460 -834 841 -834
848 0 19 8203 12 8310 -7 155 -27 343 -78 438 -117 18 -8 40 -14 48 -14 24 0
238 -106 356 -176 155 -92 296 -202 439 -344 118 -117 249 -269 249 -289 0 -5
7 -14 15 -21 22 -18 159 -246 195 -326 101 -216 150 -368 199 -614 21 -107 44
-373 38 -444 -28 -329 -71 -541 -147 -736 -12 -30 -26 -70 -31 -88 -11 -37
-113 -243 -139 -282 -10 -14 -44 -65 -76 -115 -176 -272 -443 -529 -730 -703
-110 -67 -319 -170 -368 -183 -17 -4 -56 -17 -86 -29 -91 -35 -299 -90 -344
-90 -17 0 -56 -7 -86 -15 -48 -13 -389 -15 -2605 -15 -2410 -1 -2556 -2 -2655
-19 -246 -42 -405 -182 -484 -426 -22 -67 -22 -233 0 -300 63 -193 191 -332
371 -403 l68 -27 2675 0 c2515 0 2679 1 2743 17 38 10 83 18 100 18 41 1 218
39 372 79 165 44 173 46 235 71 30 12 69 26 85 30 17 5 50 16 75 25 59 21 384
181 435 214 61 39 78 49 100 60 11 5 37 21 58 35 21 14 40 26 43 26 9 0 248
183 319 244 218 188 370 349 545 577 33 43 154 220 163 239 9 18 22 39 61 100
16 25 49 86 73 135 96 196 132 272 146 310 29 79 49 131 63 163 8 18 14 41 14
50 0 10 7 27 15 38 8 10 15 30 15 43 0 13 6 47 14 75 61 212 85 336 118 596
18 143 15 568 -5 715 -23 167 -36 249 -53 330 -14 65 -22 96 -55 215 -6 25
-15 61 -20 80 -4 19 -24 80 -44 135 -20 55 -40 111 -44 125 -13 40 -30 77 -93
210 -89 186 -116 237 -162 310 -42 68 -47 75 -92 150 -15 25 -38 56 -51 70
-13 14 -23 28 -23 32 0 4 -13 22 -29 40 -16 18 -40 50 -55 72 -75 111 -292
338 -501 522 -67 59 -307 237 -355 263 -25 14 -81 48 -125 76 -108 69 -389
205 -527 256 -139 50 -292 99 -312 99 -10 0 -39 7 -65 15 -76 23 -160 43 -266
60 -55 9 -136 24 -180 33 -74 15 -416 17 -4228 20 -3747 2 -4148 4 -4154 18
-4 11 236 258 834 857 775 777 842 847 870 907 53 113 63 156 63 276 0 126
-18 197 -72 293 -63 111 -193 218 -322 263 -55 20 -217 30 -291 19z"/>
</g>
</svg>
